HIERARCHY
ROOT hip
{
  OFFSET 0 0 0
  CHANNELS 6 Xposition Yposition Zposition Zrotation Yrotation Xrotation
  JOINT abdomen
  {
    OFFSET 0 20.6881 -0.73152
    CHANNELS 3 Zrotation Xrotation Yrotation
    JOINT chest
    {
      OFFSET 0 11.7043 -0.48768
      CHANNELS 3 Zrotation Xrotation Yrotation
      JOINT neck
      {
        OFFSET 0 22.1894 -2.19456
        CHANNELS 3 Zrotation Xrotation Yrotation
        JOINT head
        {
          OFFSET -0.24384 7.07133 1.2192
          CHANNELS 3 Zrotation Xrotation Yrotation
          JOINT leftEye
          {
            OFFSET 4.14528 8.04674 8.04672
            CHANNELS 3 Zrotation Xrotation Yrotation
            End Site
            {
              OFFSET 1 0 0
            }
          }
          JOINT rightEye
          {
            OFFSET -3.6576 8.04674 8.04672
            CHANNELS 3 Zrotation Xrotation Yrotation
            End Site
            {
              OFFSET 1 0 0
            }
          }
        }
      }
      JOINT rCollar
      {
        OFFSET -2.68224 19.2634 -4.8768
        CHANNELS 3 Zrotation Xrotation Yrotation
        JOINT rShldr
        {
          OFFSET -8.77824 -1.95073 1.46304
          CHANNELS 3 Zrotation Xrotation Yrotation
          JOINT rForeArm
          {
            OFFSET -28.1742 -1.7115 0.48768
            CHANNELS 3 Zrotation Xrotation Yrotation
            JOINT rHand
            {
              OFFSET -22.5879 0.773209 7.07136
              CHANNELS 3 Zrotation Xrotation Yrotation
              JOINT rThumb1
              {
                OFFSET -1.2192 -0.487915 3.41376
                CHANNELS 3 Zrotation Xrotation Yrotation
                JOINT rThumb2
                {
                  OFFSET -3.37035 -0.52449 3.41376
                  CHANNELS 3 Zrotation Xrotation Yrotation
                  End Site
                  {
                    OFFSET -1.78271 -1.18214 1.43049
                  }
                }
              }
              JOINT rIndex1
              {
                OFFSET -7.75947 0.938293 5.60832
                CHANNELS 3 Zrotation Xrotation Yrotation
                JOINT rIndex2
                {
                  OFFSET -2.54057 -0.884171 1.56538
                  CHANNELS 3 Zrotation Xrotation Yrotation
                  End Site
                  {
                    OFFSET -1.62519 -0.234802 1.16502
                  }
                }
              }
              JOINT rMid1
              {
                OFFSET -8.24714 1.18213 3.41376
                CHANNELS 3 Zrotation Xrotation Yrotation
                JOINT rMid2
                {
                  OFFSET -3.10165 -0.590103 1.0647
                  CHANNELS 3 Zrotation Xrotation Yrotation
                  End Site
                  {
                    OFFSET -2.48547 -0.328903 0.83742
                  }
                }
              }
              JOINT rRing1
              {
                OFFSET -8.82822 0.546677 1.51678
                CHANNELS 3 Zrotation Xrotation Yrotation
                JOINT rRing2
                {
                  OFFSET -2.60934 -0.819778 -0.0198488
                  CHANNELS 3 Zrotation Xrotation Yrotation
                  End Site
                  {
                    OFFSET -2.33842 -0.294052 0.168128
                  }
                }
              }
              JOINT rPinky1
              {
                OFFSET -8.27202 -0.0477905 -0.4584
                CHANNELS 3 Zrotation Xrotation Yrotation
                JOINT rPinky2
                {
                  OFFSET -1.82734 -0.647385 -0.700984
                  CHANNELS 3 Zrotation Xrotation Yrotation
                  End Site
                  {
                    OFFSET -1.69225 -0.51767 -0.607171
                  }
                }
              }
            }
          }
        }
      }
      JOINT lCollar
      {
        OFFSET 2.68224 19.2634 -4.8768
        CHANNELS 3 Zrotation Xrotation Yrotation
        JOINT lShldr
        {
          OFFSET 8.77824 -1.95073 1.46304
          CHANNELS 3 Zrotation Xrotation Yrotation
          JOINT lForeArm
          {
            OFFSET 28.1742 -1.7115 0.48768
            CHANNELS 3 Zrotation Xrotation Yrotation
            JOINT lHand
            {
              OFFSET 22.5879 0.773209 7.07136
              CHANNELS 3 Zrotation Xrotation Yrotation
              JOINT lThumb1
              {
                OFFSET 1.2192 -0.487915 3.41376
                CHANNELS 3 Zrotation Xrotation Yrotation
                JOINT lThumb2
                {
                  OFFSET 3.37035 -0.52449 3.41376
                  CHANNELS 3 Zrotation Xrotation Yrotation
                  End Site
                  {
                    OFFSET 1.78271 -1.18214 1.43049
                  }
                }
              }
              JOINT lIndex1
              {
                OFFSET 7.75947 0.938293 5.60832
                CHANNELS 3 Zrotation Xrotation Yrotation
                JOINT lIndex2
                {
                  OFFSET 2.54057 -0.884171 1.56538
                  CHANNELS 3 Zrotation Xrotation Yrotation
                  End Site
                  {
                    OFFSET 1.62519 -0.234802 1.16502
                  }
                }
              }
              JOINT lMid1
              {
                OFFSET 8.24714 1.18213 3.41376
                CHANNELS 3 Zrotation Xrotation Yrotation
                JOINT lMid2
                {
                  OFFSET 3.10165 -0.590103 1.0647
                  CHANNELS 3 Zrotation Xrotation Yrotation
                  End Site
                  {
                    OFFSET 2.48547 -0.328903 0.83742
                  }
                }
              }
              JOINT lRing1
              {
                OFFSET 8.82822 0.546677 1.51678
                CHANNELS 3 Zrotation Xrotation Yrotation
                JOINT lRing2
                {
                  OFFSET 2.60934 -0.819778 -0.0198488
                  CHANNELS 3 Zrotation Xrotation Yrotation
                  End Site
                  {
                    OFFSET 2.33842 -0.294052 0.168128
                  }
                }
              }
              JOINT lPinky1
              {
                OFFSET 8.27202 -0.0477905 -0.4584
                CHANNELS 3 Zrotation Xrotation Yrotation
                JOINT lPinky2
                {
                  OFFSET 1.82734 -0.647385 -0.700984
                  CHANNELS 3 Zrotation Xrotation Yrotation
                  End Site
                  {
                    OFFSET 1.69225 -0.51767 -0.607171
                  }
                }
              }
            }
          }
        }
      }
    }
  }
  JOINT rButtock
  {
    OFFSET -8.77824 4.35084 1.2192
    CHANNELS 3 Zrotation Xrotation Yrotation
    JOINT rThigh
    {
      OFFSET 0 -1.70687 -2.19456
      CHANNELS 3 Zrotation Xrotation Yrotation
      JOINT rShin
      {
        OFFSET 0 -36.8199 0.73152
        CHANNELS 3 Zrotation Xrotation Yrotation
        JOINT rFoot
        {
          OFFSET 0.73152 -45.1104 -5.12064
          CHANNELS 3 Zrotation Xrotation Yrotation
          End Site
          {
            OFFSET -1.1221 -3.69964 12.103
          }
        }
      }
    }
  }
  JOINT lButtock
  {
    OFFSET 8.77824 4.35084 1.2192
    CHANNELS 3 Zrotation Xrotation Yrotation
    JOINT lThigh
    {
      OFFSET 0 -1.70687 -2.19456
      CHANNELS 3 Zrotation Xrotation Yrotation
      JOINT lShin
      {
        OFFSET 0 -36.8199 0.73152
        CHANNELS 3 Zrotation Xrotation Yrotation
        JOINT lFoot
        {
          OFFSET -0.73152 -45.1104 -5.12064
          CHANNELS 3 Zrotation Xrotation Yrotation
          End Site
          {
            OFFSET 1.1221 -3.69964 12.103
          }
        }
      }
    }
  }
}
MOTION
Frames:	4
Frame Time:	0.00833333
50.9186 85.5269 139.046 0.0 0.0 0.0 2.34099 -0.0022239 0.0637209 0.646591 0.00595031 0.111937 4.56623e-14 -1.59028e-15 -4.96961e-16 1.3828e-13 -6.36111e-15 -1.51729e-15 -0.0 0.0 0.0 -0.0 0.0 0.0 2.25105e-14 -2.22274e-16 -4.96962e-17 4.8881e-13 -4.6528e-15 -2.18663e-15 8.36009e-12 -2.66212e-12 -1.74931e-13 9.571e-11 1.63769e-12 -7.50611e-13 2.25758e-10 -2.22576e-12 -2.0451e-12 3.8987e-10 -3.84847e-12 -3.55029e-12 2.25763e-10 -2.22559e-12 -2.05146e-12 7.73091 5.47488 0.417314 2.2576e-10 -2.22559e-12 -2.04828e-12 2.90554 0.965183 0.102902 2.25768e-10 -2.22549e-12 -2.05225e-12 10.2786 0.731801 0.0259123 2.25748e-10 -2.22281e-12 -2.05464e-12 2.22167 -0.733487 -0.20892 2.25157e-14 -2.21109e-16 -3.97569e-16 4.83934e-13 -4.66523e-15 -4.17448e-15 8.36918e-12 2.33751e-12 -1.65389e-13 9.56978e-11 -3.3617e-12 -7.66514e-13 2.25754e-10 -2.22263e-12 -2.05464e-12 3.89872e-10 -3.84211e-12 -3.5495e-12 2.25749e-10 -2.22241e-12 -2.04192e-12 -7.73091 5.47488 -0.417314 2.25754e-10 -2.22301e-12 -2.05782e-12 -2.90554 0.965183 -0.102902 2.25745e-10 -2.22221e-12 -2.04828e-12 -10.2786 0.731801 -0.0259123 2.25756e-10 -2.22082e-12 -2.05146e-12 -2.22167 -0.733487 0.20892 -2.03217e-16 0.0 -3.88251e-19 2.21581 -8.02969 -0.231381 0.00606967 8.97362 0.152053 -0.478022 -0.951426 0.0348997 2.03217e-16 0.0 3.88251e-19 1.35238 -1.92788 -0.00536324 0.00846425 -2.07867 0.0694395 0.423531 3.99898 -0.127241
51.7363 84.7265 127.192 -179.088 -1.1143 179.362 2.84318 1.58972 0.962433 0.345858 -2.47608 0.390871 -1.89461 1.64449 -0.945094 2.97343 -3.99141 -1.25795 -0.0 0.0 0.0 -0.0 0.0 0.0 2.58418e-15 1.16142e-15 1.48933e-15 22.3105 13.6856 -3.82314 -5.10801 -2.5303 7.73782 0.0512733 5.02698 0.696714 5.38014e-11 -7.18734e-11 1.01225e-10 9.40012e-11 -1.2692e-10 1.76939e-10 5.3805e-11 -7.18706e-11 1.01216e-10 7.73091 5.47488 0.417314 5.38026e-11 -7.18735e-11 1.01224e-10 2.90554 0.965183 0.102902 5.38102e-11 -7.18733e-11 1.01221e-10 10.2786 0.731801 0.0259123 5.37948e-11 -7.18712e-11 1.01221e-10 2.22167 -0.733487 -0.20892 2.57351e-15 1.16271e-15 1.15505e-15 -22.5269 8.70333 3.33594 4.34807 -2.0018 -6.76269 -0.0284679 3.74503 -0.522279 3.48102e-10 1.37213e-10 4.59344e-11 6.01986e-10 2.36671e-10 7.69795e-11 3.48099e-10 1.37214e-10 4.59453e-11 -7.73091 5.47488 -0.417314 3.48104e-10 1.37213e-10 4.59323e-11 -2.90554 0.965183 -0.102902 3.48096e-10 1.37213e-10 4.59373e-11 -10.2786 0.731801 -0.0259123 3.48105e-10 1.37213e-10 4.5932e-11 -2.22167 -0.733487 0.20892 -2.03217e-16 0.0 -3.88251e-19 4.23086 -7.81559 3.5487 0.0329138 12.754 0.226543 -1.29337 -4.60669 -7.11738 2.03217e-16 0.0 3.88251e-19 0.520784 -3.53181 -4.34053 -0.0121172 4.36376 -0.1019 0.90434 -1.65505 3.95249
51.7362 84.7279 127.194 -179.098 -1.0878 179.378 3.31946 3.27106 1.91517 0.0533238 -5.10041 0.687768 -3.83613 3.3816 -1.9468 5.91993 -8.20228 -2.60953 -0.0 0.0 0.0 -0.0 0.0 0.0 -1.848e-14 2.63551e-15 3.09359e-15 48.1144 27.9362 -8.6565 -9.7701 -5.04993 15.9632 -0.0295044 10.3478 1.45257 -1.32713e-10 -1.444e-10 2.09332e-10 -2.2697e-10 -2.55212e-10 3.65987e-10 -1.32711e-10 -1.44394e-10 2.0932e-10 7.73091 5.47488 0.417314 -1.32713e-10 -1.44401e-10 2.09332e-10 2.90554 0.965183 0.102902 -1.32706e-10 -1.444e-10 2.09331e-10 10.2786 0.731801 0.0259123 -1.32717e-10 -1.44399e-10 2.09333e-10 2.22167 -0.733487 -0.20892 -1.85076e-14 2.63698e-15 2.77367e-15 -47.4902 17.7986 7.12621 8.43373 -4.02437 -13.9368 0.0163397 7.71273 -1.08324 4.78728e-10 2.85427e-10 9.63406e-11 8.28452e-10 4.92327e-10 1.61524e-10 4.78726e-10 2.85428e-10 9.63495e-11 -7.73091 5.47488 -0.417314 4.78731e-10 2.85426e-10 9.63398e-11 -2.90554 0.965183 -0.102902 4.78726e-10 2.85426e-10 9.63399e-11 -10.2786 0.731801 -0.0259123 4.78732e-10 2.85425e-10 9.63322e-11 -2.22167 -0.733487 0.20892 -2.03217e-16 0.0 -3.88251e-19 6.32943 -7.5548 7.53925 0.0500967 16.7522 0.308918 -3.14673 -8.2665 -14.788 2.03217e-16 0.0 3.88251e-19 -0.622927 -5.18351 -8.94406 0.0086203 11.1727 -0.287812 2.29147 -7.55767 8.33794
51.7466 84.7301 127.194 -179.059 -1.0608 179.376 3.69735 4.76874 2.76834 -0.182543 -7.43928 0.955689 -5.52064 4.92808 -2.84464 8.385 -11.9509 -3.84823 -0.0 0.0 0.0 -0.0 0.0 0.0 -3.72685e-14 3.9288e-15 4.56739e-15 73.7989 40.2077 -14.6586 -13.3232 -7.0383 23.3772 -0.223976 15.0719 2.15631 -2.90112e-10 -2.11169e-10 3.07766e-10 -4.97737e-10 -3.73064e-10 5.37917e-10 -2.90111e-10 -2.11161e-10 3.07752e-10 7.73091 5.47488 0.417314 -2.90112e-10 -2.11169e-10 3.07769e-10 2.90554 0.965183 0.102902 -2.90106e-10 -2.11169e-10 3.07768e-10 10.2786 0.731801 0.0259123 -2.90112e-10 -2.11168e-10 3.07773e-10 2.22167 -0.733487 -0.20892 -3.73109e-14 3.93034e-15 4.26028e-15 -70.8869 25.7361 10.9947 11.6537 -5.67144 -20.3798 0.1228 11.2313 -1.59403 5.92799e-10 4.16085e-10 1.41912e-10 1.02622e-09 7.17697e-10 2.38037e-10 5.92798e-10 4.16088e-10 1.4192e-10 -7.73091 5.47488 -0.417314 5.92804e-10 4.16085e-10 1.41912e-10 -2.90554 0.965183 -0.102902 5.92799e-10 4.16084e-10 1.41908e-10 -10.2786 0.731801 -0.0259123 5.92803e-10 4.16082e-10 1.41899e-10 -2.22167 -0.733487 0.20892 -2.03217e-16 0.0 -3.88251e-19 8.17323 -7.29432 11.0962 0.0550166 20.3144 0.386518 -5.63377 -11.1876 -21.7871 2.03217e-16 0.0 3.88251e-19 -1.86716 -6.59613 -13.0741 0.0662257 17.2481 -0.46449 4.30724 -12.6815 12.4139
